<?xml version="1.0" encoding="UTF-8"?>
<svg xmlns="http://www.w3.org/2000/svg" xmlns:xlink="http://www.w3.org/1999/xlink" width="1000px" height="1000px" viewBox="0 0 1000 1000" version="1.1">
<g id="surface1">
<path style=" stroke:none;fill-rule:nonzero;fill:rgb(0%,0%,0%);fill-opacity:1;" d="M 615.199219 389.398438 C 612.199219 394.398438 610.199219 399.398438 610.398438 400.398438 C 610.800781 401.199219 615.199219 398.398438 620.398438 393.800781 C 626.398438 388.800781 629.398438 384.800781 628.601562 383 C 626.398438 377 620.398438 380 615.199219 389.398438 Z M 615.199219 389.398438 "/>
<path style=" stroke:none;fill-rule:nonzero;fill:rgb(0%,0%,0%);fill-opacity:1;" d="M 392 389.398438 C 390.398438 389.800781 387.800781 390.800781 386.199219 391.199219 C 384 392 383.800781 392.601562 385.601562 394.398438 C 387.199219 396 388 406.800781 388 427.398438 C 388 454.199219 387.601562 458 384.601562 459.800781 C 381.800781 461.398438 384.398438 461.800781 394.601562 462 C 407.199219 462 408 461.800781 405 458.800781 C 402.199219 456 401.800781 450.800781 402.398438 421.800781 C 403 389 402.800781 388 399 388.199219 C 396.800781 388.199219 393.601562 388.800781 392 389.398438 Z M 392 389.398438 "/>
<path style=" stroke:none;fill-rule:nonzero;fill:rgb(0%,0%,0%);fill-opacity:1;" d="M 417.800781 392.199219 C 416 395.800781 416.398438 397.199219 419.800781 400.601562 C 423.199219 404.199219 424.601562 404.398438 429 402.398438 C 437.398438 398.601562 434.398438 388 424.601562 388 C 422.199219 388 419.199219 389.800781 417.800781 392.199219 Z M 417.800781 392.199219 "/>
<path style=" stroke:none;fill-rule:nonzero;fill:rgb(0%,0%,0%);fill-opacity:1;" d="M 339 392.800781 C 322.601562 400.199219 314 421.601562 320.199219 440.199219 C 325.398438 455.800781 342.199219 465.398438 360 463.398438 C 374.398438 461.601562 378 459.199219 378 451 C 378 442.199219 376.800781 442.199219 373.199219 451 C 369.398438 460 362.398438 463.398438 352.601562 460.800781 C 341.601562 458 337.199219 450.601562 336.398438 432.800781 C 335.398438 413.199219 337 405.601562 343.800781 398.199219 C 348.199219 393.398438 351.398438 392 356.800781 392 C 363.800781 392 365.601562 393.199219 372.800781 403 C 375.800781 406.800781 375.800781 406.800781 376 400.601562 C 376 395.398438 375 394 369.800781 392.199219 C 361.199219 389.199219 346.398438 389.601562 339 392.800781 Z M 339 392.800781 "/>
<path style=" stroke:none;fill-rule:nonzero;fill:rgb(0%,0%,0%);fill-opacity:1;" d="M 420.601562 412.398438 C 414.398438 414.398438 411.601562 418 416 418 C 419 418 418.601562 456.601562 415.601562 459.601562 C 413.800781 461.398438 416 462 426.199219 461.800781 C 433.199219 461.800781 437.800781 461.199219 436.601562 460.601562 C 434.601562 460 434 452.800781 434 434.800781 C 434 407.398438 434.398438 408 420.601562 412.398438 Z M 420.601562 412.398438 "/>
<path style=" stroke:none;fill-rule:nonzero;fill:rgb(0%,0%,0%);fill-opacity:1;" d="M 450.601562 412.398438 C 444.398438 414.398438 441.601562 418 446 418 C 449 418 448.601562 456.601562 445.601562 459.601562 C 443.800781 461.398438 446 462 455.800781 462 C 467.199219 462 468 461.800781 465 458.800781 C 462.398438 456.199219 462 452 462.398438 437.398438 C 463 420.199219 463.398438 419 467.800781 416.601562 C 471.199219 415 474 414.800781 476.398438 416.199219 C 479.398438 417.800781 480 420.800781 480 437.601562 C 480 450.199219 479.199219 458 477.601562 459.601562 C 475.800781 461.398438 477.800781 462 487 462 C 496.199219 462 498.199219 461.398438 496.398438 459.601562 C 494.800781 458 494 450.199219 494 437.800781 L 494 418.398438 L 499.601562 416.398438 C 510.199219 412.800781 512 415.800781 512 437.601562 C 512 450.199219 511.199219 458 509.601562 459.601562 C 507.800781 461.398438 509.800781 462 519 462 C 528.199219 462 530.199219 461.398438 528.398438 459.601562 C 526.800781 458 526 450 526 437 C 526 419.800781 525.398438 416.199219 522.398438 413.398438 C 517.800781 409.199219 507.601562 409 499.800781 413.199219 C 494.199219 416 493.398438 416 490.199219 413.199219 C 485.800781 409.199219 474 409 468.800781 413 C 463.800781 416.800781 462 416.800781 462 413 C 462 409.601562 459.800781 409.601562 450.601562 412.398438 Z M 450.601562 412.398438 "/>
<path style=" stroke:none;fill-rule:nonzero;fill:rgb(0%,0%,0%);fill-opacity:1;" d="M 542.398438 412.800781 C 537.601562 414.398438 536.398438 415.601562 538 417.199219 C 539.398438 418.601562 540 430.800781 539.601562 452.601562 L 539 486 L 550 485.800781 C 556 485.800781 559.800781 485.199219 558.601562 484.601562 C 557 484 556 479.601562 556 472.800781 L 556 462 L 564.601562 463.199219 C 581.601562 465.601562 592 455.199219 592 436 C 592 424.800781 588 415.199219 582.199219 412.199219 C 577.398438 409.601562 550.800781 410 542.398438 412.800781 Z M 572.800781 418.398438 C 576.800781 424 577 446.800781 573.398438 454 C 571.601562 457.800781 569 459.199219 563.398438 459.601562 L 556 460.199219 L 556 438.398438 C 556 426.398438 556.601562 416 557.398438 415.398438 C 560.398438 412.199219 569.800781 414.199219 572.800781 418.398438 Z M 572.800781 418.398438 "/>
<path style=" stroke:none;fill-rule:nonzero;fill:rgb(0%,0%,0%);fill-opacity:1;" d="M 645.800781 415.800781 C 642.601562 419 640 423.398438 640 425.601562 C 640 431.601562 647.398438 439.398438 655.601562 442.199219 C 670 446.800781 673.601562 453.398438 665 459.199219 C 658.199219 463.601562 650.800781 461.398438 645.800781 453.398438 L 641.800781 447 L 642.398438 454 C 643 460.398438 643.601562 461.199219 651 462.601562 C 663 465.199219 675.199219 461.398438 679 454 C 680.601562 450.800781 682 446.800781 682 445.199219 C 682 440 673.199219 432.199219 663 428.601562 C 655.398438 425.800781 652.800781 423.800781 652.398438 420.199219 C 651.601562 414.601562 654.800781 412 662.601562 412 C 666.601562 412 669 413.601562 672 418.398438 L 676 425 L 676 418.800781 C 676 411.398438 673.601562 410 660.601562 410 C 653.398438 410 650.601562 411.199219 645.800781 415.800781 Z M 645.800781 415.800781 "/>
<path style=" stroke:none;fill-rule:nonzero;fill:rgb(0%,0%,0%);fill-opacity:1;" d="M 420 524 C 420 533.398438 420.800781 540 422 540 C 423.199219 540 424 533.398438 424 524 C 424 514.601562 423.199219 508 422 508 C 420.800781 508 420 514.601562 420 524 Z M 420 524 "/>
<path style=" stroke:none;fill-rule:nonzero;fill:rgb(0%,0%,0%);fill-opacity:1;" d="M 478 512 C 478 513 479 514 480 514 C 481.199219 514 482 513 482 512 C 482 510.800781 481.199219 510 480 510 C 479 510 478 510.800781 478 512 Z M 478 512 "/>
<path style=" stroke:none;fill-rule:nonzero;fill:rgb(0%,0%,0%);fill-opacity:1;" d="M 524 512 C 524 513 525 514 526 514 C 527.199219 514 528 513 528 512 C 528 510.800781 527.199219 510 526 510 C 525 510 524 510.800781 524 512 Z M 524 512 "/>
<path style=" stroke:none;fill-rule:nonzero;fill:rgb(0%,0%,0%);fill-opacity:1;" d="M 552.601562 517 C 551.398438 519.800781 551.199219 522 552 522 C 553 522 554 525.800781 554.398438 530.398438 C 554.800781 536.601562 556 539.199219 558.601562 539.601562 C 560.398438 540 562 539.199219 562 538 C 562 536.800781 561.199219 536.398438 560 537 C 558.800781 537.800781 558 535 558 530.199219 C 558 523.800781 558.800781 522 561.601562 522 C 564.800781 521.800781 564.800781 521.800781 561.601562 519.199219 C 559.601562 517.800781 558 515.601562 558 514.199219 C 558 510.398438 555 511.800781 552.601562 517 Z M 552.601562 517 "/>
<path style=" stroke:none;fill-rule:nonzero;fill:rgb(0%,0%,0%);fill-opacity:1;" d="M 401.398438 519.398438 C 398.601562 522 400.199219 523.398438 405 522.398438 C 408.601562 521.800781 410 522.398438 410 524.800781 C 410 526.601562 408.398438 528 406.199219 528 C 401.398438 528 397.199219 533 398.800781 537 C 399.601562 539 402.199219 539.800781 407 539.601562 C 413.800781 539 414 538.800781 414 530.800781 C 414 526.398438 413 521.800781 411.601562 520.398438 C 409 517.800781 403.398438 517.199219 401.398438 519.398438 Z M 410 533 C 410 536.199219 404.601562 539.398438 402.601562 537.398438 C 402 536.601562 402 534.800781 402.601562 533 C 404.199219 529 410 529 410 533 Z M 410 533 "/>
<path style=" stroke:none;fill-rule:nonzero;fill:rgb(0%,0%,0%);fill-opacity:1;" d="M 432.398438 520.398438 C 429 523.800781 429.398438 535 433 538 C 434.601562 539.398438 437.800781 540 440 539.398438 C 443 538.601562 444 539.398438 444 542 C 444 544.199219 445 546.398438 446 547 C 447.199219 547.800781 448 542.800781 448 533.601562 L 448 519 L 441.398438 518.601562 C 437.800781 518.199219 433.601562 519.199219 432.398438 520.398438 Z M 444 528.800781 C 444 535.398438 441.398438 538.199219 436.601562 536.601562 C 433.800781 535.601562 433 525.601562 435.398438 523.398438 C 436 522.601562 438.398438 522 440.398438 522 C 443.199219 522 444 523.601562 444 528.800781 Z M 444 528.800781 "/>
<path style=" stroke:none;fill-rule:nonzero;fill:rgb(0%,0%,0%);fill-opacity:1;" d="M 454 526.398438 C 454 537.800781 455.800781 540 464.601562 539.601562 L 472 539.398438 L 472 528.601562 C 472 522.800781 471.199219 518 470 518 C 469 518 468 522 468 526.800781 C 468 533 467 536 464.800781 536.800781 C 459.601562 538.800781 458 536.398438 458 526.800781 C 458 522 457.199219 518 456 518 C 455 518 454 521.800781 454 526.398438 Z M 454 526.398438 "/>
<path style=" stroke:none;fill-rule:nonzero;fill:rgb(0%,0%,0%);fill-opacity:1;" d="M 478 529 C 478 535 479 540 480 540 C 481.199219 540 482 535 482 529 C 482 523 481.199219 518 480 518 C 479 518 478 523 478 529 Z M 478 529 "/>
<path style=" stroke:none;fill-rule:nonzero;fill:rgb(0%,0%,0%);fill-opacity:1;" d="M 488 529.398438 C 488 535.199219 489 540 490 540 C 491.199219 540 492 536 492 531 C 492 523.398438 492.601562 522 496 522 C 499.398438 522 500 523.398438 500 531 C 500 542.398438 503.601562 542.800781 504.398438 531.398438 C 504.800781 524.601562 505.800781 523 509 523 C 512.199219 523 513.199219 524.601562 513.601562 531.398438 C 514 536.199219 515 540 516.199219 540 C 518.601562 540 518.601562 526.800781 516 521.800781 C 513.800781 517.800781 507 516.601562 505 520 C 504.199219 521.398438 502.800781 521.601562 501.398438 520.199219 C 500 519.199219 496.601562 518.398438 493.601562 518.601562 C 488.199219 519 488 519.398438 488 529.398438 Z M 488 529.398438 "/>
<path style=" stroke:none;fill-rule:nonzero;fill:rgb(0%,0%,0%);fill-opacity:1;" d="M 524 529 C 524 535 525 540 526 540 C 527.199219 540 528 535 528 529 C 528 523 527.199219 518 526 518 C 525 518 524 523 524 529 Z M 524 529 "/>
<path style=" stroke:none;fill-rule:nonzero;fill:rgb(0%,0%,0%);fill-opacity:1;" d="M 533.800781 521.199219 C 531.601562 524 531.800781 525 535.601562 528 C 538 530 541.199219 532 542.398438 532.398438 C 547 534 541.601562 538.398438 536.601562 537 C 533.398438 536.199219 532.199219 536.601562 533 538 C 535 541.199219 543.199219 540.398438 546.199219 536.800781 C 548.398438 534 548.199219 533 544.398438 530 C 542 528 538.800781 525.800781 537.398438 525.398438 C 533.800781 523.800781 539.800781 520 543.601562 521.601562 C 545.601562 522.199219 546.199219 521.800781 545.199219 520.398438 C 543.199219 517 537 517.398438 533.800781 521.199219 Z M 533.800781 521.199219 "/>
<path style=" stroke:none;fill-rule:nonzero;fill:rgb(0%,0%,0%);fill-opacity:1;" d="M 569.398438 519.199219 C 566.800781 522 568 523.199219 573.398438 523 C 581 523 581.199219 526.800781 573.601562 529 C 569 530.398438 567 532.199219 567 535 C 567 538.199219 568.398438 539 574.601562 539 L 582.199219 539.199219 L 581.601562 529 C 581 520 580.601562 519 576 518.398438 C 573.199219 518 570.199219 518.398438 569.398438 519.199219 Z M 580 531.601562 C 580 534 575.398438 538 572.601562 538 C 569.199219 538 569.199219 532.601562 572.601562 531.398438 C 576.398438 529.800781 580 529.800781 580 531.601562 Z M 580 531.601562 "/>
<path style=" stroke:none;fill-rule:nonzero;fill:rgb(0%,0%,0%);fill-opacity:1;" d="M 590.601562 519.398438 C 586 521.199219 587.800781 528 593.199219 530 C 599.199219 532.398438 598.601562 537.199219 592.199219 536.601562 C 590 536.199219 588 537 588 538.199219 C 588 539.398438 590.800781 540 594.601562 539.601562 C 603.199219 538.800781 605 531 597 528 C 590.601562 525.601562 591.398438 520.800781 598 521.601562 C 600.800781 522 602 521.601562 601.199219 520.199219 C 599.800781 518 594.800781 517.601562 590.601562 519.398438 Z M 590.601562 519.398438 "/>
</g>
</svg>
