<?xml version="1.0" standalone="no"?>
<!DOCTYPE svg PUBLIC "-//W3C//DTD SVG 20010904//EN"
 "http://www.w3.org/TR/2001/REC-SVG-20010904/DTD/svg10.dtd">
<svg version="1.0" xmlns="http://www.w3.org/2000/svg"
 width="500.000000pt" height="500.000000pt" viewBox="0 0 500.000000 500.000000"
 preserveAspectRatio="xMidYMid meet">

<g transform="translate(0.000000,500.000000) scale(0.100000,-0.100000)"
fill="#000000" stroke="none">
<path d="M3076 3053 c-15 -25 -25 -50 -24 -55 2 -4 24 10 50 33 30 25 45 45
41 54 -11 30 -41 15 -67 -32z"/>
<path d="M1960 3053 c-8 -2 -21 -7 -29 -9 -11 -4 -12 -7 -3 -16 8 -8 12 -62
12 -165 0 -134 -2 -153 -17 -162 -14 -8 -1 -10 50 -11 63 0 67 1 52 16 -14 14
-16 40 -13 185 3 164 2 169 -17 168 -11 0 -27 -3 -35 -6z"/>
<path d="M2089 3039 c-9 -18 -7 -25 10 -42 17 -18 24 -19 46 -9 42 19 27 72
-22 72 -12 0 -27 -9 -34 -21z"/>
<path d="M1695 3036 c-82 -37 -125 -144 -94 -237 26 -78 110 -126 199 -116 72
9 90 21 90 62 0 44 -6 44 -24 0 -19 -45 -54 -62 -103 -49 -55 14 -77 51 -81
140 -5 98 3 136 37 173 22 24 38 31 65 31 35 0 44 -6 80 -55 15 -19 15 -19 16
12 0 26 -5 33 -31 42 -43 15 -117 13 -154 -3z"/>
<path d="M2103 2938 c-31 -10 -45 -28 -23 -28 15 0 13 -193 -2 -208 -9 -9 2
-12 53 -11 35 0 58 3 52 6 -10 3 -13 39 -13 129 0 137 2 134 -67 112z"/>
<path d="M2253 2938 c-31 -10 -45 -28 -23 -28 15 0 13 -193 -2 -208 -9 -9 2
-12 51 -12 57 0 61 1 46 16 -13 13 -15 34 -13 107 3 86 5 92 27 104 17 8 31 9
43 2 15 -8 18 -23 18 -107 0 -63 -4 -102 -12 -110 -9 -9 1 -12 47 -12 46 0 56
3 47 12 -8 8 -12 47 -12 109 l0 97 28 10 c53 18 62 3 62 -106 0 -63 -4 -102
-12 -110 -9 -9 1 -12 47 -12 46 0 56 3 47 12 -8 8 -12 48 -12 113 0 86 -3 104
-18 118 -23 21 -74 22 -113 1 -28 -14 -32 -14 -48 0 -22 20 -81 21 -107 1 -25
-19 -34 -19 -34 0 0 17 -11 17 -57 3z"/>
<path d="M2712 2936 c-24 -8 -30 -14 -22 -22 7 -7 10 -68 8 -177 l-3 -167 55
1 c30 0 49 3 43 6 -8 3 -13 25 -13 59 l0 54 43 -6 c85 -12 137 40 137 136 0
56 -20 104 -49 119 -24 13 -157 11 -199 -3z m152 -28 c20 -28 21 -142 3 -178
-9 -19 -22 -26 -50 -28 l-37 -3 0 109 c0 60 3 112 7 115 15 16 62 6 77 -15z"/>
<path d="M3229 2921 c-16 -16 -29 -38 -29 -49 0 -30 37 -69 78 -83 72 -23 90
-56 47 -85 -34 -22 -71 -11 -96 29 l-20 32 3 -35 c3 -32 6 -36 43 -43 60 -13
121 6 140 43 8 16 15 36 15 44 0 26 -44 65 -95 83 -38 14 -51 24 -53 42 -4 28
12 41 51 41 20 0 32 -8 47 -32 l20 -33 0 31 c0 37 -12 44 -77 44 -36 0 -50 -6
-74 -29z"/>
<path d="M2100 2380 c0 -47 4 -80 10 -80 6 0 10 33 10 80 0 47 -4 80 -10 80
-6 0 -10 -33 -10 -80z"/>
<path d="M2390 2440 c0 -5 5 -10 10 -10 6 0 10 5 10 10 0 6 -4 10 -10 10 -5 0
-10 -4 -10 -10z"/>
<path d="M2620 2440 c0 -5 5 -10 10 -10 6 0 10 5 10 10 0 6 -4 10 -10 10 -5 0
-10 -4 -10 -10z"/>
<path d="M2763 2415 c-6 -14 -7 -25 -3 -25 5 0 10 -19 12 -42 2 -31 8 -44 21
-46 9 -2 17 2 17 8 0 6 -4 8 -10 5 -6 -4 -10 10 -10 34 0 32 4 41 18 41 16 1
16 1 0 14 -10 7 -18 18 -18 25 0 19 -15 12 -27 -14z"/>
<path d="M2007 2403 c-14 -13 -6 -20 18 -15 18 3 25 0 25 -12 0 -9 -8 -16 -19
-16 -24 0 -45 -25 -37 -45 4 -10 17 -14 41 -13 34 3 35 4 35 44 0 22 -5 45
-12 52 -13 13 -41 16 -51 5z m43 -68 c0 -16 -27 -32 -37 -22 -3 4 -3 13 0 22
8 20 37 20 37 0z"/>
<path d="M2162 2398 c-17 -17 -15 -73 3 -88 8 -7 24 -10 35 -7 15 4 20 0 20
-13 0 -11 5 -22 10 -25 6 -4 10 21 10 67 l0 73 -33 2 c-18 2 -39 -3 -45 -9z
m58 -42 c0 -33 -13 -47 -37 -39 -14 5 -18 55 -6 66 3 4 15 7 25 7 14 0 18 -8
18 -34z"/>
<path d="M2270 2368 c0 -57 9 -68 53 -66 l37 1 0 54 c0 29 -4 53 -10 53 -5 0
-10 -20 -10 -44 0 -31 -5 -46 -16 -50 -26 -10 -34 2 -34 50 0 24 -4 44 -10 44
-5 0 -10 -19 -10 -42z"/>
<path d="M2390 2355 c0 -30 5 -55 10 -55 6 0 10 25 10 55 0 30 -4 55 -10 55
-5 0 -10 -25 -10 -55z"/>
<path d="M2440 2353 c0 -29 5 -53 10 -53 6 0 10 20 10 45 0 38 3 45 20 45 17
0 20 -7 20 -45 0 -57 18 -59 22 -2 2 34 7 42 23 42 16 0 21 -8 23 -42 2 -24 7
-43 13 -43 12 0 12 66 -1 91 -11 20 -45 26 -55 9 -4 -7 -11 -8 -18 -1 -7 5
-24 9 -39 8 -27 -2 -28 -4 -28 -54z"/>
<path d="M2620 2355 c0 -30 5 -55 10 -55 6 0 10 25 10 55 0 30 -4 55 -10 55
-5 0 -10 -25 -10 -55z"/>
<path d="M2669 2394 c-11 -14 -10 -19 9 -34 12 -10 28 -20 34 -22 23 -8 -4
-30 -29 -23 -16 4 -22 2 -18 -5 10 -16 51 -12 66 6 11 14 10 19 -9 34 -12 10
-28 21 -35 23 -18 8 12 27 31 19 10 -3 13 -1 8 6 -10 17 -41 15 -57 -4z"/>
<path d="M2847 2404 c-13 -14 -7 -20 20 -19 38 0 39 -19 1 -30 -23 -7 -33 -16
-33 -30 0 -16 7 -20 38 -20 l38 -1 -3 51 c-3 45 -5 50 -28 53 -14 2 -29 0 -33
-4z m53 -62 c0 -12 -23 -32 -37 -32 -17 0 -17 27 0 33 19 8 37 8 37 -1z"/>
<path d="M2953 2403 c-23 -9 -14 -43 13 -53 30 -12 27 -36 -5 -33 -11 2 -21
-2 -21 -8 0 -6 14 -9 33 -7 43 4 52 43 12 58 -32 12 -28 36 5 32 14 -2 20 0
16 7 -7 11 -32 13 -53 4z"/>
</g>
</svg>
