<?xml version="1.0" standalone="no"?>
<!DOCTYPE svg PUBLIC "-//W3C//DTD SVG 20010904//EN"
 "http://www.w3.org/TR/2001/REC-SVG-20010904/DTD/svg10.dtd">
<svg version="1.0" xmlns="http://www.w3.org/2000/svg"
 width="1920.000000pt" height="1080.000000pt" viewBox="0 0 1920.000000 1080.000000"
 preserveAspectRatio="xMidYMid meet">

<g transform="translate(0.000000,1080.000000) scale(0.100000,-0.100000)"
fill="#000000" stroke="none">
<path d="M15959 9612 c-118 -31 -217 -113 -267 -221 -34 -73 -42 -217 -18
-302 48 -164 204 -287 429 -341 l98 -23 -7 -30 c-15 -69 -59 -194 -89 -255
-45 -89 -92 -151 -176 -236 l-70 -72 16 -31 16 -31 52 26 c257 130 496 434
573 729 21 82 26 125 28 235 0 85 -4 155 -13 190 -69 279 -309 430 -572 362z"/>
<path d="M4585 9335 l-520 -121 -3 -30 c-3 -29 -1 -30 66 -47 92 -24 155 -65
184 -119 l23 -43 0 -1630 0 -1630 -28 -53 c-32 -62 -97 -113 -177 -140 -50
-17 -55 -22 -58 -50 l-3 -32 680 0 681 0 0 29 c0 27 -5 31 -52 45 -72 22 -125
54 -161 98 -59 74 -58 32 -64 1458 -5 1189 3 1992 22 2265 l5 70 -37 26 -38
26 -520 -122z"/>
<path d="M6224 9431 c-123 -35 -244 -141 -284 -249 -45 -117 -34 -277 24 -377
65 -110 199 -196 333 -215 216 -30 411 67 496 247 30 64 32 74 32 183 0 109
-2 119 -32 183 -74 157 -232 248 -425 246 -47 0 -109 -8 -144 -18z"/>
<path d="M2291 9304 c-304 -39 -600 -140 -831 -283 -477 -297 -771 -773 -845
-1371 -17 -143 -20 -434 -5 -595 58 -615 357 -1121 835 -1415 145 -90 370
-183 552 -230 318 -81 740 -89 1088 -19 199 39 408 108 581 189 l101 47 6 258
c4 142 7 328 7 412 l0 154 -27 -3 c-24 -3 -37 -26 -168 -318 -207 -462 -237
-505 -398 -579 -161 -75 -222 -86 -467 -86 -204 0 -220 1 -314 28 -482 134
-760 547 -851 1261 -51 403 -38 964 30 1334 41 219 133 462 237 628 64 103
188 238 272 299 87 62 234 130 346 161 131 36 351 45 466 19 99 -22 215 -66
266 -101 83 -58 100 -82 356 -494 146 -235 161 -255 187 -255 l27 0 -1 115
c-3 160 -19 581 -23 585 -2 2 -43 23 -93 48 -227 114 -480 188 -737 216 -131
15 -469 12 -597 -5z"/>
<path d="M6220 8110 l-515 -167 -3 -30 c-3 -29 -1 -31 56 -42 79 -15 152 -54
179 -94 13 -18 28 -58 33 -89 7 -36 10 -390 8 -1014 l-3 -959 -26 -56 c-31
-65 -85 -106 -185 -139 -59 -20 -64 -24 -64 -51 l0 -29 668 2 667 3 3 26 c3
23 -3 28 -56 47 -79 29 -137 73 -164 124 l-23 43 0 1272 0 1271 -24 26 c-14
14 -27 26 -30 25 -3 0 -238 -76 -521 -169z"/>
<path d="M8150 8241 c-58 -21 -275 -95 -482 -166 -377 -127 -378 -127 -378
-156 0 -18 6 -29 18 -33 186 -53 209 -67 239 -144 17 -44 18 -103 18 -1037 l0
-990 -27 -57 c-32 -70 -80 -106 -177 -137 -67 -21 -71 -24 -71 -52 l0 -29 671
0 670 0 -3 31 c-3 27 -10 34 -60 54 -82 33 -124 69 -155 133 l-28 57 -3 1002
-3 1001 81 61 c176 133 287 181 433 189 221 11 325 -51 375 -225 15 -52 17
-156 17 -1043 l0 -985 -30 -60 c-35 -71 -78 -104 -178 -136 -63 -20 -68 -24
-65 -48 l3 -26 663 -3 662 -2 0 30 c0 20 -6 33 -17 37 -152 51 -211 113 -233
244 -6 40 -10 371 -10 894 0 832 -2 894 -36 1045 -5 22 4 32 83 90 187 136
328 190 500 190 201 0 302 -69 338 -233 14 -64 15 -188 13 -1057 l-3 -985 -24
-48 c-28 -57 -80 -98 -163 -129 -53 -19 -59 -24 -56 -47 l3 -26 658 -3 658 -2
-3 31 c-3 28 -9 34 -43 44 -101 30 -177 94 -205 172 -11 31 -15 224 -20 1023
-5 700 -10 999 -18 1035 -55 232 -153 367 -326 449 -131 63 -195 77 -381 83
-126 4 -179 2 -250 -12 -232 -43 -510 -188 -731 -378 l-68 -59 -37 76 c-51
103 -87 153 -158 219 -118 108 -233 147 -461 154 -175 5 -270 -10 -416 -66
-151 -58 -353 -187 -486 -310 -38 -35 -71 -62 -73 -59 -3 2 -14 87 -26 189
-21 179 -23 185 -52 217 -17 17 -33 32 -36 31 -4 0 -53 -17 -111 -38z"/>
<path d="M12955 8180 c-729 -250 -675 -229 -675 -261 0 -23 5 -30 28 -35 173
-39 220 -79 242 -204 8 -46 10 -528 8 -1675 l-3 -1610 -30 -55 c-36 -65 -85
-101 -177 -132 -63 -20 -68 -24 -68 -50 l0 -28 696 0 695 0 -3 27 c-3 25 -10
30 -63 44 -130 35 -188 76 -226 161 l-24 53 -3 539 c-3 516 -2 538 15 531 210
-85 415 -119 718 -120 280 0 373 17 561 105 296 137 510 413 610 785 106 395
93 929 -31 1295 -101 298 -297 532 -540 645 -149 70 -206 80 -445 80 -184 0
-232 -4 -328 -23 -151 -30 -304 -81 -432 -144 -58 -29 -109 -52 -115 -52 -5
-1 -19 34 -32 77 -19 66 -64 145 -83 146 -3 0 -135 -45 -295 -99z m1006 -134
c91 -20 157 -55 231 -125 142 -133 216 -335 254 -691 23 -224 15 -758 -14
-948 -62 -396 -186 -617 -403 -716 -134 -62 -378 -51 -596 27 l-63 22 0 1156
0 1157 108 45 c91 38 149 56 267 80 44 10 154 6 216 -7z"/>
<path d="M17765 8269 c-172 -23 -340 -78 -461 -150 -199 -119 -355 -323 -410
-534 -28 -106 -26 -324 4 -428 40 -140 114 -261 222 -360 144 -134 289 -205
630 -312 351 -110 464 -161 555 -252 120 -120 155 -335 80 -488 -53 -109 -188
-205 -344 -247 -91 -24 -302 -29 -396 -9 -107 22 -211 81 -297 168 -91 93
-148 177 -288 426 -94 166 -108 187 -131 187 l-26 0 -6 -217 c-4 -120 -7 -273
-7 -341 l0 -123 93 -44 c137 -64 345 -131 482 -157 103 -19 154 -22 360 -22
202 1 259 4 359 22 455 83 749 311 848 657 20 68 23 103 23 235 0 179 -14 247
-75 375 -127 265 -347 409 -835 545 -267 74 -511 197 -600 302 -15 18 -40 58
-54 88 -22 48 -26 69 -26 155 0 93 2 105 33 167 40 83 93 130 203 185 240 120
541 88 688 -73 64 -70 98 -123 228 -354 104 -183 112 -195 142 -198 29 -3 31
-1 31 30 0 18 7 143 15 278 8 135 15 260 15 278 0 32 -3 35 -82 71 -105 48
-251 97 -370 123 -74 16 -138 21 -313 23 -121 2 -251 -1 -290 -6z"/>
<path d="M7070 3285 l0 -405 50 0 50 0 0 405 0 405 -50 0 -50 0 0 -405z"/>
<path d="M8560 3660 c-11 -11 -20 -31 -20 -45 0 -31 41 -75 70 -75 26 0 70 43
70 68 0 59 -79 93 -120 52z"/>
<path d="M9730 3660 c-29 -29 -24 -77 11 -102 36 -27 76 -15 97 28 15 32 15
36 -5 62 -26 36 -74 41 -103 12z"/>
<path d="M10525 3608 c-2 -7 -8 -49 -14 -93 -7 -43 -17 -83 -24 -87 -6 -4 -27
-8 -44 -8 -30 0 -33 -3 -33 -29 0 -28 3 -30 43 -33 l42 -3 5 -207 c5 -201 6
-207 29 -232 48 -51 140 -58 209 -16 l33 20 -21 30 c-21 29 -22 29 -50 15 -40
-20 -63 -19 -86 6 -17 19 -19 38 -19 203 l0 181 83 3 83 3 -3 32 -3 32 -82 3
-83 3 0 94 0 95 -30 0 c-17 0 -32 -6 -35 -12z"/>
<path d="M6643 3435 c-58 -16 -133 -61 -133 -80 0 -6 9 -20 21 -31 20 -18 21
-18 72 11 72 40 145 42 184 3 22 -22 27 -39 31 -88 l4 -60 -43 0 c-65 0 -174
-26 -220 -52 -123 -69 -96 -240 41 -263 59 -10 112 2 174 40 l56 33 8 -31 c7
-28 13 -32 45 -35 l37 -3 0 188 c-1 206 -9 261 -46 310 -47 62 -136 85 -231
58z m177 -363 c0 -66 -16 -89 -82 -117 -71 -29 -138 -14 -159 36 -30 75 56
134 204 138 l37 1 0 -58z"/>
<path d="M7485 3441 c-80 -20 -142 -79 -170 -160 -20 -60 -20 -203 1 -265 52
-152 226 -191 347 -78 l27 26 0 -138 0 -137 48 3 47 3 0 370 0 370 -28 3 c-33
4 -57 -13 -57 -39 0 -23 -13 -24 -31 -3 -31 38 -124 60 -184 45z m132 -82 c15
-6 38 -20 51 -31 21 -20 22 -29 22 -159 l0 -137 -41 -36 c-88 -75 -201 -53
-238 47 -14 37 -14 175 0 218 30 88 120 131 206 98z"/>
<path d="M9031 3440 c-18 -5 -53 -22 -77 -39 l-44 -30 -8 32 c-7 28 -13 32
-45 35 l-37 3 0 -280 0 -281 50 0 50 0 0 213 c0 236 -3 226 67 261 39 20 66
20 102 2 48 -25 54 -54 59 -273 l4 -203 43 0 43 0 4 203 c3 228 8 246 75 274
49 20 96 10 127 -28 l26 -31 0 -209 0 -209 50 0 50 0 0 210 c0 220 -6 257 -48
303 -68 75 -239 62 -289 -23 -9 -16 -20 -30 -23 -30 -4 0 -14 16 -23 35 -25
52 -91 80 -156 65z"/>
<path d="M10110 3441 c-83 -17 -134 -66 -146 -138 -13 -85 37 -137 180 -183
77 -25 106 -48 106 -86 0 -38 -18 -64 -55 -80 -49 -20 -80 -18 -148 13 l-60
27 -18 -23 c-11 -13 -19 -27 -19 -32 0 -16 99 -59 152 -65 98 -11 195 33 224
102 8 18 14 53 14 77 0 75 -41 110 -182 156 -106 35 -131 84 -72 139 33 30
109 30 166 1 l42 -21 18 22 c25 30 20 41 -33 66 -50 25 -118 35 -169 25z"/>
<path d="M10991 3439 c-48 -9 -129 -53 -137 -74 -7 -18 13 -55 30 -55 8 0 40
14 71 30 31 17 70 30 87 30 71 0 118 -56 118 -140 l0 -40 -47 0 c-27 0 -76 -7
-111 -15 -128 -30 -182 -79 -182 -163 0 -91 74 -150 175 -139 54 6 122 34 144
61 19 23 27 20 37 -16 8 -27 15 -34 42 -36 l32 -3 0 213 c0 186 -3 218 -19
254 -21 47 -59 77 -116 93 -45 12 -62 12 -124 0z m167 -371 c-3 -60 -4 -63
-45 -92 -31 -21 -58 -31 -97 -34 -48 -4 -57 -1 -80 21 -40 40 -32 102 17 129
29 16 122 36 170 37 l38 1 -3 -62z"/>
<path d="M11540 3443 c-55 -9 -88 -25 -120 -58 -29 -30 -34 -43 -38 -95 -4
-60 -4 -61 35 -98 28 -27 64 -45 127 -66 98 -33 131 -62 121 -106 -18 -75
-108 -101 -198 -56 -67 32 -75 32 -89 0 -11 -23 -10 -29 11 -45 65 -53 204
-61 281 -18 103 58 118 202 26 258 -17 11 -58 28 -92 39 -117 38 -147 66 -129
121 16 51 116 66 195 30 l44 -20 17 23 c16 21 16 24 2 40 -29 32 -137 60 -193
51z"/>
<path d="M7940 3228 c0 -186 3 -218 19 -254 54 -119 215 -137 324 -36 l27 26
0 -23 c0 -41 18 -61 55 -61 l35 0 0 281 0 280 -47 -3 -48 -3 -3 -204 c-3 -228
-2 -225 -74 -262 -69 -35 -146 -20 -176 35 -13 25 -17 70 -20 234 l-4 202 -44
0 -44 0 0 -212z"/>
<path d="M8560 3160 l0 -280 50 0 50 0 0 280 0 280 -50 0 -50 0 0 -280z"/>
<path d="M9730 3161 l0 -281 50 0 50 0 -2 278 -3 277 -47 3 -48 3 0 -280z"/>
</g>
</svg>
